<svg width="25" height="24" viewBox="0 0 25 24" fill="none" xmlns="http://www.w3.org/2000/svg">
<g id="email-mail 1" clip-path="url(#clip0_1705_952)">
<g id="Group">
<g id="Group_2">
<path id="Vector" d="M22.5059 3.9906H2.49882C1.39781 3.9906 0.5 4.88842 0.5 5.99414V18.0107C0.5 19.1117 1.39781 20.0095 2.49882 20.0095H22.5012C23.6022 20.0095 24.5 19.1117 24.5 18.0107V5.99414C24.5047 4.88842 23.6069 3.9906 22.5059 3.9906ZM21.9672 5.32787L12.4976 13.3184L3.03751 5.32787H21.9672ZM1.83255 17.85V6.05557L8.86385 11.9906L1.83255 17.85ZM2.92882 18.6722L9.8987 12.8648L12.0676 14.6982C12.1905 14.8022 12.3464 14.8542 12.4976 14.8542C12.6488 14.8542 12.8048 14.8022 12.9276 14.6982L15.1013 12.8648L22.0806 18.6722H2.92882ZM23.1722 17.8453L16.1361 11.9906L23.1722 6.05085V17.8453Z" fill="white"/>
</g>
</g>
</g>
<defs>
<clipPath id="clip0_1705_952">
<rect width="24" height="24" fill="white" transform="translate(0.5)"/>
</clipPath>
</defs>
</svg>
