<svg width="20" height="20" viewBox="0 0 20 20" fill="none" xmlns="http://www.w3.org/2000/svg">
<g id="vuesax/linear/home-hashtag">
<g id="home-hashtag">
<path id="Vector" d="M7.51663 2.36664L3.02496 5.86664C2.27496 6.44997 1.66663 7.69164 1.66663 8.63331V14.8083C1.66663 16.7416 3.24163 18.325 5.17496 18.325H14.825C16.7583 18.325 18.3333 16.7416 18.3333 14.8166V8.74997C18.3333 7.74164 17.6583 6.44997 16.8333 5.87497L11.6833 2.26664C10.5166 1.44997 8.64163 1.49164 7.51663 2.36664Z" stroke="#FAFAF7" stroke-width="1.5" stroke-linecap="round" stroke-linejoin="round"/>
<path id="Vector_2" d="M8.75 15H11.25C12.625 15 13.75 13.875 13.75 12.5V10C13.75 8.625 12.625 7.5 11.25 7.5H8.75C7.375 7.5 6.25 8.625 6.25 10V12.5C6.25 13.875 7.375 15 8.75 15Z" stroke="#FAFAF7" stroke-width="1.5" stroke-linecap="round" stroke-linejoin="round"/>
<path id="Vector_3" d="M10 7.5V15" stroke="#FAFAF7" stroke-width="1.5" stroke-linecap="round" stroke-linejoin="round"/>
<path id="Vector_4" d="M6.25 11.25H13.75" stroke="#FAFAF7" stroke-width="1.5" stroke-linecap="round" stroke-linejoin="round"/>
</g>
</g>
</svg>
