<svg width="50" height="50" viewBox="0 0 50 50" fill="none" xmlns="http://www.w3.org/2000/svg">
<g id="diamond 1" clip-path="url(#clip0_1702_875)">
<g id="Group">
<g id="Group_2">
<path id="Vector" d="M49.1667 32.5H40C39.2642 32.5 38.6083 32.8258 38.15 33.3333H33.3333C32.8733 33.3333 32.5 33.7058 32.5 34.1667V34.8283L25.7058 33.24C25.1958 33.1225 24.6733 33.1642 24.1925 33.3617L17.6675 36.0283C16.8242 36.3733 16.2075 37.0708 15.9567 37.9133L3.22333 34.0658C2.46 33.835 1.6525 33.9767 1.00917 34.4525C0.3675 34.9275 0 35.6592 0 36.4583V38.32C0 39.1575 0.416667 39.935 1.11333 40.4L10.3708 46.5717C10.4533 46.6267 10.545 46.6667 10.6425 46.69L24.4283 49.9342C24.615 49.9783 24.8067 49.9992 24.9992 49.9992C25.1925 49.9992 25.3867 49.9775 25.5742 49.9333L32.5 48.2967V48.3333C32.5 48.7942 32.8733 49.1667 33.3333 49.1667H38.15C38.6075 49.6742 39.2642 50 40 50H49.1667C49.6267 50 50 49.6275 50 49.1667V33.3333C50 32.8725 49.6267 32.5 49.1667 32.5ZM32.4475 46.5967L25.1908 48.3108C25.0658 48.3425 24.9325 48.3417 24.8083 48.3117L11.1708 45.1025L2.0375 39.0133C1.80583 38.8592 1.66667 38.5992 1.66667 38.32V36.4583C1.66667 36.1925 1.78917 35.9483 2.00333 35.7892C2.21667 35.63 2.485 35.5817 2.74167 35.66L15.9733 39.6425C16.355 40.825 17.4708 41.6667 18.7833 41.6667H25C25.46 41.6667 25.8333 41.2942 25.8333 40.8333C25.8333 40.3725 25.46 40 25 40H18.7833C18.0758 40 17.5 39.4458 17.5 38.7433C17.5 38.22 17.8133 37.7608 18.2983 37.5633L24.8242 34.9008C24.9842 34.8342 25.1592 34.8225 25.3283 34.8625L32.4975 36.5392L32.4475 46.5967ZM37.5 47.5H34.1667V35H37.5V47.5ZM48.3333 48.3333H40C39.5408 48.3333 39.1667 47.96 39.1667 47.5V35C39.1667 34.54 39.5408 34.1667 40 34.1667H48.3333V48.3333Z" fill="#4A708B"/>
</g>
</g>
<g id="Group_3">
<g id="Group_4">
<path id="Vector_2" d="M45.1492 45H42.6492C42.1892 45 41.8158 45.3725 41.8158 45.8333C41.8158 46.2942 42.1883 46.6667 42.6492 46.6667H45.1492C45.6092 46.6667 45.9825 46.2942 45.9825 45.8333C45.9825 45.3725 45.6092 45 45.1492 45Z" fill="#4A708B"/>
</g>
</g>
<g id="Group_5">
<g id="Group_6">
<path id="Vector_3" d="M41.7108 12.9308L37.5683 5.43083C37.4225 5.165 37.1425 5 36.84 5C36.8392 5 36.8383 5 36.8375 5C36.8342 5 36.8308 5.00167 36.8275 5.00167C36.8225 5.00167 36.8192 5 36.8158 5H28.5933C28.5783 5 28.5642 5.005 28.5492 5.00583C28.5342 5.005 28.5208 5 28.5067 5C28.5058 5 28.505 5 28.5042 5C28.5008 5 28.4975 5.00167 28.4942 5.00167C28.4892 5.00167 28.4858 5 28.4825 5H20.26C20.245 5 20.2308 5.005 20.2158 5.00583C20.2008 5.005 20.1875 5 20.1733 5C20.1725 5 20.1717 5 20.1708 5C20.1675 5 20.1642 5.00167 20.1608 5.00167C20.1558 5.00167 20.1525 5 20.1492 5H11.9267C11.9117 5 11.8975 5.005 11.8825 5.00583C11.8675 5.005 11.8542 5 11.84 5C11.8392 5 11.8383 5 11.8375 5C11.5333 5.00083 11.2533 5.1675 11.1083 5.435L7.02833 12.935C7.02 12.9508 7.01666 12.9692 7.00916 12.985C7.00333 12.9983 6.9925 13.0083 6.9875 13.0217C6.98083 13.0383 6.98083 13.0558 6.97583 13.0717C6.96083 13.1175 6.95 13.1642 6.9425 13.2117C6.93833 13.2417 6.93333 13.2708 6.9325 13.3017C6.93083 13.35 6.935 13.3975 6.94166 13.4458C6.94583 13.4742 6.9475 13.5017 6.95416 13.53C6.96666 13.58 6.98666 13.6275 7.00833 13.6758C7.01916 13.6992 7.02583 13.7242 7.03833 13.7467C7.04083 13.7508 7.04083 13.755 7.04333 13.7583C7.08166 13.8225 7.1275 13.88 7.18 13.9308C7.18083 13.9317 7.18166 13.9333 7.1825 13.9342L23.7375 29.8192C23.7508 29.8325 23.7683 29.8367 23.7817 29.8483C23.8367 29.895 23.8967 29.9325 23.9617 29.9642C23.9875 29.9758 24.01 29.9908 24.0367 30C24.125 30.0317 24.2175 30.0525 24.315 30.0525C24.4125 30.0525 24.505 30.0317 24.5933 30C24.6192 29.9908 24.6425 29.9767 24.6683 29.9642C24.7333 29.9333 24.7933 29.895 24.8483 29.8483C24.8617 29.8367 24.8792 29.8325 24.8917 29.82L41.2633 14.1108C41.4425 14.0458 41.5992 13.9258 41.6992 13.7567C41.8492 13.5025 41.8533 13.1883 41.7108 12.9308ZM35.4033 6.66667L32.6783 11.6L29.995 6.66667H35.4033ZM28.5117 7.56667L31.2367 12.5H30.8708H25.8283L28.5117 7.56667ZM27.07 6.66667L24.345 11.6L21.6617 6.66667H27.07ZM20.1783 7.56667L22.9033 12.5H17.76H17.495L20.1783 7.56667ZM18.7367 6.66667L16.0117 11.6L13.3283 6.66667H18.7367ZM11.845 7.56667L14.57 12.5H9.16166L11.845 7.56667ZM9.83166 14.1667H15.9817H16.0025H16.005H16.0917H17.2008L22.0325 25.875L9.83166 14.1667ZM24.315 27.0342L19.0058 14.1667H24.3158H24.3367H24.3392H24.4258H29.6242L24.315 27.0342ZM26.5967 25.875L31.4283 14.1667H32.6492H32.67H32.6725H32.7592H38.7983L26.5967 25.875ZM34.1617 12.5L36.845 7.56667L39.57 12.5H34.1617Z" fill="#4A708B"/>
</g>
</g>
<g id="Group_7">
<g id="Group_8">
<path id="Vector_4" d="M11.6667 25.8333H9.99999V24.1666C9.99999 23.7058 9.62666 23.3333 9.16666 23.3333C8.70666 23.3333 8.33333 23.7058 8.33333 24.1666V25.8333H6.66666C6.20666 25.8333 5.83333 26.2058 5.83333 26.6666C5.83333 27.1274 6.20666 27.4999 6.66666 27.4999H8.33333V29.1666C8.33333 29.6274 8.70666 29.9999 9.16666 29.9999C9.62666 29.9999 9.99999 29.6274 9.99999 29.1666V27.4999H11.6667C12.1267 27.4999 12.5 27.1274 12.5 26.6666C12.5 26.2058 12.1267 25.8333 11.6667 25.8333Z" fill="#4A708B"/>
</g>
</g>
<g id="Group_9">
<g id="Group_10">
<path id="Vector_5" d="M47.1608 4.16666L47.75 3.57749C48.075 3.25166 48.075 2.72499 47.75 2.39916C47.4242 2.07333 46.8975 2.07333 46.5717 2.39916L45.9825 2.98833L45.3933 2.39916C45.0675 2.07333 44.5408 2.07333 44.215 2.39916C43.8892 2.72499 43.8892 3.25166 44.215 3.57749L44.8033 4.16666L44.2142 4.75583C43.8883 5.08166 43.8883 5.60833 44.2142 5.93416C44.3767 6.09666 44.59 6.17833 44.8033 6.17833C45.0167 6.17833 45.23 6.09666 45.3925 5.93416L45.9817 5.34499L46.5708 5.93416C46.7333 6.09666 46.9467 6.17833 47.16 6.17833C47.3733 6.17833 47.5867 6.09666 47.7492 5.93416C48.075 5.60833 48.075 5.08166 47.7492 4.75583L47.1608 4.16666Z" fill="#4A708B"/>
</g>
</g>
<g id="Group_11">
<g id="Group_12">
<path id="Vector_6" d="M42.5 23.3333C41.1217 23.3333 40 24.4549 40 25.8333C40 27.2116 41.1217 28.3333 42.5 28.3333C43.8783 28.3333 45 27.2116 45 25.8333C45 24.4549 43.8783 23.3333 42.5 23.3333ZM42.5 26.6666C42.0408 26.6666 41.6667 26.2933 41.6667 25.8333C41.6667 25.3733 42.0408 24.9999 42.5 24.9999C42.9592 24.9999 43.3333 25.3733 43.3333 25.8333C43.3333 26.2933 42.9592 26.6666 42.5 26.6666Z" fill="#4A708B"/>
</g>
</g>
<g id="Group_13">
<g id="Group_14">
<path id="Vector_7" d="M4.16667 0C2.78834 0 1.66667 1.12167 1.66667 2.5C1.66667 3.87833 2.78834 5 4.16667 5C5.54501 5 6.66667 3.87833 6.66667 2.5C6.66667 1.12167 5.54501 0 4.16667 0ZM4.16667 3.33333C3.7075 3.33333 3.33334 2.96 3.33334 2.5C3.33334 2.04 3.7075 1.66667 4.16667 1.66667C4.62584 1.66667 5.00001 2.04 5.00001 2.5C5.00001 2.96 4.62584 3.33333 4.16667 3.33333Z" fill="#4A708B"/>
</g>
</g>
</g>
<defs>
<clipPath id="clip0_1702_875">
<rect width="50" height="50" fill="white"/>
</clipPath>
</defs>
</svg>
