<svg width="50" height="50" viewBox="0 0 50 50" fill="none" xmlns="http://www.w3.org/2000/svg">
<g id="eye 1">
<g id="Group">
<g id="Group_2">
<path id="Vector" d="M48.7695 24.4922C43.7891 16.0645 34.7461 10.7812 25 10.7812C15.2539 10.7812 6.20117 16.0645 1.23047 24.4922C1.02539 24.7949 1.02539 25.2051 1.23047 25.5078C6.21094 33.9355 15.2539 39.2188 25 39.2188C34.7461 39.2188 43.7988 33.9355 48.7695 25.5078C48.9746 25.2051 48.9746 24.7949 48.7695 24.4922ZM25 37.1875C16.1621 37.1875 7.92969 32.5195 3.35938 25C7.92969 17.4805 16.1621 12.8125 25 12.8125C33.8379 12.8125 42.0703 17.4805 46.6406 25C42.0703 32.5195 33.8379 37.1875 25 37.1875Z" fill="#A86C3F"/>
<path id="Vector_2" d="M25 15.8594C19.9219 15.8594 15.8594 19.9219 15.8594 25C15.8594 30.0781 19.9219 34.1406 25 34.1406C30.0781 34.1406 34.1406 30.0781 34.1406 25C34.1406 19.9219 30.0781 15.8594 25 15.8594ZM25 32.1094C21.0352 32.1094 17.8906 28.9551 17.8906 25C17.8906 21.0449 21.0449 17.8906 25 17.8906C28.9551 17.8906 32.1094 21.0449 32.1094 25C32.1094 28.9551 28.9648 32.1094 25 32.1094Z" fill="#A86C3F"/>
<path id="Vector_3" d="M25 20.9375V22.9688C26.1133 22.9688 27.0312 23.8867 27.0312 25C27.0312 26.1133 26.1133 27.0312 25 27.0312C23.8867 27.0312 22.9688 26.1133 22.9688 25H20.9375C20.9375 27.2363 22.7637 29.0625 25 29.0625C27.2363 29.0625 29.0625 27.2363 29.0625 25C29.0625 22.7637 27.2363 20.9375 25 20.9375Z" fill="#A86C3F"/>
</g>
</g>
</g>
</svg>
